# Blender v3.0.1 OBJ File: 'peixe.blend'
# www.blender.org
mtllib peixe.mtl
o Sphere
v 0.000000 0.994522 -0.104528
v 0.000000 0.978148 -0.207912
v 0.000000 0.951057 -0.309017
v 0.000000 0.913545 -0.406737
v 0.000000 0.866025 -0.500000
v 0.000000 0.809017 -0.587785
v 0.000000 0.743145 -0.669131
v 0.000000 0.669131 -0.743145
v 0.000000 0.587785 -0.809017
v 0.000000 0.500000 -0.866025
v 0.000000 0.406737 -0.913545
v 0.000000 0.309017 -0.951057
v 0.000000 0.207912 -0.978148
v 0.000000 0.104528 -0.994522
v 0.000000 -0.000000 -1.000000
v 0.000000 -0.104529 -0.994522
v 0.000000 -0.207912 -0.978148
v 0.000000 -0.309017 -0.951056
v 0.000000 -0.406737 -0.913545
v 0.000000 -0.500000 -0.866025
v 0.000000 -0.587785 -0.809017
v 0.000000 -0.669131 -0.743145
v 0.000000 -0.743145 -0.669131
v 0.000000 -0.809017 -0.587785
v 0.000000 -0.866025 -0.500000
v 0.000000 -0.913545 -0.406737
v 0.000000 -0.951056 -0.309017
v 0.000000 -0.978148 -0.207912
v 0.000000 -0.994522 -0.104528
v 0.090524 0.994522 0.052264
v 0.180057 0.978148 0.103956
v 0.267617 0.951056 0.154509
v 0.352244 0.913545 0.203368
v 0.433013 0.866025 0.250000
v 0.509037 0.809017 0.293893
v 0.579484 0.743145 0.334565
v 0.643582 0.669130 0.371573
v 0.700629 0.587785 0.404509
v 0.750000 0.500000 0.433013
v 0.791154 0.406737 0.456773
v 0.823639 0.309017 0.475528
v 0.847101 0.207912 0.489074
v 0.861281 0.104528 0.497261
v 0.866025 -0.000000 0.500000
v 0.861281 -0.104529 0.497261
v 0.847101 -0.207912 0.489074
v 0.823639 -0.309017 0.475528
v 0.791154 -0.406737 0.456773
v 0.750000 -0.500000 0.433013
v 0.700629 -0.587785 0.404509
v 0.643582 -0.669131 0.371573
v 0.579484 -0.743145 0.334565
v 0.509037 -0.809017 0.293893
v 0.433013 -0.866025 0.250000
v 0.352244 -0.913545 0.203368
v 0.267617 -0.951056 0.154509
v 0.180057 -0.978148 0.103956
v 0.090524 -0.994522 0.052264
v -0.000000 1.000000 0.000000
v -0.090524 0.994522 0.052264
v -0.180057 0.978147 0.103956
v -0.267617 0.951056 0.154509
v -0.352244 0.913545 0.203368
v -0.433013 0.866025 0.250000
v -0.509037 0.809017 0.293893
v -0.579484 0.743145 0.334565
v -0.643582 0.669130 0.371572
v -0.700629 0.587785 0.404509
v -0.750000 0.500000 0.433013
v -0.791154 0.406736 0.456773
v -0.823639 0.309017 0.475528
v -0.847101 0.207912 0.489074
v -0.861281 0.104528 0.497261
v -0.866026 -0.000000 0.500000
v -0.861281 -0.104529 0.497261
v -0.847101 -0.207912 0.489074
v -0.823639 -0.309017 0.475528
v -0.791154 -0.406737 0.456773
v -0.750000 -0.500000 0.433013
v -0.700629 -0.587785 0.404509
v -0.643582 -0.669131 0.371572
v -0.579484 -0.743145 0.334565
v -0.509037 -0.809017 0.293893
v -0.433013 -0.866025 0.250000
v -0.352244 -0.913545 0.203368
v -0.267617 -0.951056 0.154509
v -0.180057 -0.978148 0.103956
v -0.090524 -0.994522 0.052264
v 0.000000 -1.000000 0.000000
vt 0.666667 0.633333
vt 0.666667 0.666667
vt 0.333333 0.666667
vt 0.333333 0.633333
vt 0.666667 0.166667
vt 0.666667 0.200000
vt 0.333333 0.200000
vt 0.333333 0.166667
vt 0.666667 0.600000
vt 0.333333 0.600000
vt 0.666667 0.133333
vt 0.333333 0.133333
vt 0.666667 0.566667
vt 0.333333 0.566667
vt 0.666667 0.100000
vt 0.333333 0.100000
vt 0.666667 0.533333
vt 0.333333 0.533333
vt 0.666667 0.966667
vt 0.500000 1.000000
vt 0.333333 0.966667
vt 0.666667 0.066667
vt 0.333333 0.066667
vt 0.666667 0.500000
vt 0.333333 0.500000
vt 0.666667 0.933333
vt 0.333333 0.933333
vt 0.666667 0.033333
vt 0.333333 0.033333
vt 0.666667 0.466667
vt 0.333333 0.466667
vt 0.666667 0.900000
vt 0.333333 0.900000
vt 0.500000 0.000000
vt 0.666667 0.433333
vt 0.333333 0.433333
vt 0.666667 0.866667
vt 0.333333 0.866667
vt 0.666667 0.400000
vt 0.333333 0.400000
vt 0.666667 0.833333
vt 0.333333 0.833333
vt 0.666667 0.366667
vt 0.333333 0.366667
vt 0.666667 0.800000
vt 0.333333 0.800000
vt 0.666667 0.333333
vt 0.333333 0.333333
vt 0.666667 0.766667
vt 0.333333 0.766667
vt 0.666667 0.300000
vt 0.333333 0.300000
vt 0.666667 0.733333
vt 0.333333 0.733333
vt 0.666667 0.266667
vt 0.333333 0.266667
vt 0.666667 0.700000
vt 0.333333 0.700000
vt 0.666667 0.233333
vt 0.333333 0.233333
vt 0.000000 0.766667
vt 0.000000 0.733333
vt 0.000000 0.300000
vt 0.000000 0.266667
vt 0.000000 0.700000
vt 0.000000 0.233333
vt 0.000000 0.666667
vt 0.000000 0.200000
vt 0.000000 0.633333
vt 0.000000 0.166667
vt 0.000000 0.600000
vt 0.000000 0.133333
vt 0.000000 0.566667
vt 0.000000 0.100000
vt 0.000000 0.533333
vt 0.166667 1.000000
vt 0.000000 0.966667
vt 0.000000 0.066667
vt 0.000000 0.500000
vt 0.000000 0.933333
vt 0.000000 0.033333
vt 0.000000 0.466667
vt 0.000000 0.900000
vt 0.166667 0.000000
vt 0.000000 0.433333
vt 0.000000 0.866667
vt 0.000000 0.400000
vt 0.000000 0.833333
vt 0.000000 0.366667
vt 0.000000 0.800000
vt 0.000000 0.333333
vt 1.000000 0.533333
vt 1.000000 0.566667
vt 1.000000 0.966667
vt 0.833334 1.000000
vt 1.000000 0.066667
vt 1.000000 0.100000
vt 1.000000 0.500000
vt 1.000000 0.933333
vt 1.000000 0.033333
vt 1.000000 0.466667
vt 1.000000 0.900000
vt 0.833334 0.000000
vt 1.000000 0.433333
vt 1.000000 0.866667
vt 1.000000 0.400000
vt 1.000000 0.833333
vt 1.000000 0.366667
vt 1.000000 0.800000
vt 1.000000 0.333333
vt 1.000000 0.766667
vt 1.000000 0.300000
vt 1.000000 0.733333
vt 1.000000 0.266667
vt 1.000000 0.700000
vt 1.000000 0.233333
vt 1.000000 0.666667
vt 1.000000 0.200000
vt 1.000000 0.633333
vt 1.000000 0.166667
vt 1.000000 0.600000
vt 1.000000 0.133333
vn 0.8392 0.2469 -0.4845
vn 0.6862 -0.6101 -0.3962
vn 0.8505 0.1885 -0.4910
vn 0.6181 -0.7004 -0.3569
vn 0.8584 0.1328 -0.4956
vn 0.5274 -0.7932 -0.3045
vn 0.8633 0.0789 -0.4984
vn 0.0903 0.9946 -0.0521
vn 0.4091 -0.8814 -0.2362
vn 0.8657 0.0262 -0.4998
vn 0.2615 0.9533 -0.1510
vn 0.2615 -0.9533 -0.1510
vn 0.8657 -0.0262 -0.4998
vn 0.4091 0.8814 -0.2362
vn 0.0903 -0.9946 -0.0521
vn 0.8633 -0.0789 -0.4984
vn 0.5274 0.7932 -0.3045
vn 0.8584 -0.1328 -0.4956
vn 0.6181 0.7004 -0.3569
vn 0.8505 -0.1885 -0.4910
vn 0.6862 0.6101 -0.3962
vn 0.8392 -0.2469 -0.4845
vn 0.7369 0.5254 -0.4254
vn 0.8237 -0.3088 -0.4756
vn 0.7746 0.4472 -0.4472
vn 0.8027 -0.3753 -0.4635
vn 0.8027 0.3753 -0.4635
vn 0.7746 -0.4472 -0.4472
vn 0.8237 0.3088 -0.4756
vn 0.7369 -0.5254 -0.4254
vn -0.0000 0.4472 0.8944
vn -0.0000 -0.3753 0.9269
vn -0.0000 0.3753 0.9269
vn -0.0000 -0.4472 0.8944
vn -0.0000 0.3088 0.9511
vn -0.0000 -0.5254 0.8509
vn -0.0000 0.2469 0.9690
vn -0.0000 -0.6101 0.7924
vn -0.0000 0.1885 0.9821
vn -0.0000 -0.7004 0.7137
vn -0.0000 0.1328 0.9911
vn -0.0000 -0.7932 0.6090
vn -0.0000 0.0789 0.9969
vn -0.0000 0.9946 0.1042
vn -0.0000 -0.8814 0.4723
vn -0.0000 0.0262 0.9997
vn -0.0000 0.9533 0.3020
vn -0.0000 -0.9533 0.3020
vn -0.0000 -0.0262 0.9997
vn -0.0000 0.8814 0.4723
vn -0.0000 -0.9946 0.1042
vn -0.0000 -0.0789 0.9969
vn -0.0000 0.7932 0.6090
vn -0.0000 -0.1328 0.9911
vn -0.0000 0.7004 0.7137
vn -0.0000 -0.1885 0.9821
vn -0.0000 0.6101 0.7924
vn -0.0000 -0.2469 0.9690
vn -0.0000 0.5254 0.8509
vn -0.0000 -0.3088 0.9511
vn -0.8633 0.0789 -0.4984
vn -0.0903 0.9946 -0.0521
vn -0.4091 -0.8814 -0.2362
vn -0.8657 0.0262 -0.4998
vn -0.2615 0.9533 -0.1510
vn -0.2615 -0.9533 -0.1510
vn -0.8657 -0.0262 -0.4998
vn -0.4091 0.8814 -0.2362
vn -0.0903 -0.9946 -0.0521
vn -0.8633 -0.0789 -0.4984
vn -0.5274 0.7932 -0.3045
vn -0.8584 -0.1328 -0.4956
vn -0.6181 0.7004 -0.3569
vn -0.8505 -0.1885 -0.4910
vn -0.6862 0.6101 -0.3962
vn -0.8392 -0.2469 -0.4845
vn -0.7369 0.5254 -0.4254
vn -0.8237 -0.3088 -0.4756
vn -0.7746 0.4472 -0.4472
vn -0.8027 -0.3753 -0.4635
vn -0.8027 0.3753 -0.4635
vn -0.7746 -0.4472 -0.4472
vn -0.8237 0.3088 -0.4756
vn -0.7369 -0.5254 -0.4254
vn -0.8392 0.2469 -0.4845
vn -0.6862 -0.6101 -0.3962
vn -0.8505 0.1885 -0.4910
vn -0.6181 -0.7004 -0.3569
vn -0.8584 0.1328 -0.4956
vn -0.5274 -0.7932 -0.3045
usemtl None
s off
f 11/1/1 10/2/1 39/3/1 40/4/1
f 25/5/2 24/6/2 53/7/2 54/8/2
f 12/9/3 11/1/3 40/4/3 41/10/3
f 26/11/4 25/5/4 54/8/4 55/12/4
f 13/13/5 12/9/5 41/10/5 42/14/5
f 27/15/6 26/11/6 55/12/6 56/16/6
f 14/17/7 13/13/7 42/14/7 43/18/7
f 1/19/8 59/20/8 30/21/8
f 28/22/9 27/15/9 56/16/9 57/23/9
f 15/24/10 14/17/10 43/18/10 44/25/10
f 2/26/11 1/19/11 30/21/11 31/27/11
f 29/28/12 28/22/12 57/23/12 58/29/12
f 16/30/13 15/24/13 44/25/13 45/31/13
f 3/32/14 2/26/14 31/27/14 32/33/14
f 89/34/15 29/28/15 58/29/15
f 17/35/16 16/30/16 45/31/16 46/36/16
f 4/37/17 3/32/17 32/33/17 33/38/17
f 18/39/18 17/35/18 46/36/18 47/40/18
f 5/41/19 4/37/19 33/38/19 34/42/19
f 19/43/20 18/39/20 47/40/20 48/44/20
f 6/45/21 5/41/21 34/42/21 35/46/21
f 20/47/22 19/43/22 48/44/22 49/48/22
f 7/49/23 6/45/23 35/46/23 36/50/23
f 21/51/24 20/47/24 49/48/24 50/52/24
f 8/53/25 7/49/25 36/50/25 37/54/25
f 22/55/26 21/51/26 50/52/26 51/56/26
f 9/57/27 8/53/27 37/54/27 38/58/27
f 23/59/28 22/55/28 51/56/28 52/60/28
f 10/2/29 9/57/29 38/58/29 39/3/29
f 24/6/30 23/59/30 52/60/30 53/7/30
f 37/54/31 36/50/31 66/61/31 67/62/31
f 51/56/32 50/52/32 80/63/32 81/64/32
f 38/58/33 37/54/33 67/62/33 68/65/33
f 52/60/34 51/56/34 81/64/34 82/66/34
f 39/3/35 38/58/35 68/65/35 69/67/35
f 53/7/36 52/60/36 82/66/36 83/68/36
f 40/4/37 39/3/37 69/67/37 70/69/37
f 54/8/38 53/7/38 83/68/38 84/70/38
f 41/10/39 40/4/39 70/69/39 71/71/39
f 55/12/40 54/8/40 84/70/40 85/72/40
f 42/14/41 41/10/41 71/71/41 72/73/41
f 56/16/42 55/12/42 85/72/42 86/74/42
f 43/18/43 42/14/43 72/73/43 73/75/43
f 30/21/44 59/76/44 60/77/44
f 57/23/45 56/16/45 86/74/45 87/78/45
f 44/25/46 43/18/46 73/75/46 74/79/46
f 31/27/47 30/21/47 60/77/47 61/80/47
f 58/29/48 57/23/48 87/78/48 88/81/48
f 45/31/49 44/25/49 74/79/49 75/82/49
f 32/33/50 31/27/50 61/80/50 62/83/50
f 89/84/51 58/29/51 88/81/51
f 46/36/52 45/31/52 75/82/52 76/85/52
f 33/38/53 32/33/53 62/83/53 63/86/53
f 47/40/54 46/36/54 76/85/54 77/87/54
f 34/42/55 33/38/55 63/86/55 64/88/55
f 48/44/56 47/40/56 77/87/56 78/89/56
f 35/46/57 34/42/57 64/88/57 65/90/57
f 49/48/58 48/44/58 78/89/58 79/91/58
f 36/50/59 35/46/59 65/90/59 66/61/59
f 50/52/60 49/48/60 79/91/60 80/63/60
f 73/92/61 72/93/61 13/13/61 14/17/61
f 60/94/62 59/95/62 1/19/62
f 87/96/63 86/97/63 27/15/63 28/22/63
f 74/98/64 73/92/64 14/17/64 15/24/64
f 61/99/65 60/94/65 1/19/65 2/26/65
f 88/100/66 87/96/66 28/22/66 29/28/66
f 75/101/67 74/98/67 15/24/67 16/30/67
f 62/102/68 61/99/68 2/26/68 3/32/68
f 89/103/69 88/100/69 29/28/69
f 76/104/70 75/101/70 16/30/70 17/35/70
f 63/105/71 62/102/71 3/32/71 4/37/71
f 77/106/72 76/104/72 17/35/72 18/39/72
f 64/107/73 63/105/73 4/37/73 5/41/73
f 78/108/74 77/106/74 18/39/74 19/43/74
f 65/109/75 64/107/75 5/41/75 6/45/75
f 79/110/76 78/108/76 19/43/76 20/47/76
f 66/111/77 65/109/77 6/45/77 7/49/77
f 80/112/78 79/110/78 20/47/78 21/51/78
f 67/113/79 66/111/79 7/49/79 8/53/79
f 81/114/80 80/112/80 21/51/80 22/55/80
f 68/115/81 67/113/81 8/53/81 9/57/81
f 82/116/82 81/114/82 22/55/82 23/59/82
f 69/117/83 68/115/83 9/57/83 10/2/83
f 83/118/84 82/116/84 23/59/84 24/6/84
f 70/119/85 69/117/85 10/2/85 11/1/85
f 84/120/86 83/118/86 24/6/86 25/5/86
f 71/121/87 70/119/87 11/1/87 12/9/87
f 85/122/88 84/120/88 25/5/88 26/11/88
f 72/93/89 71/121/89 12/9/89 13/13/89
f 86/97/90 85/122/90 26/11/90 27/15/90
